<?xml version="1.0" encoding="UTF-8"?>
<svg id="Layer_1" data-name="Layer 1" xmlns="http://www.w3.org/2000/svg" viewBox="0 0 37 49.72">
  <path d="M37,31.22c0,10.22-8.28,18.5-18.5,18.5S0,41.44,0,31.22C0,15.03,15,0,18.5,0s18.5,15.03,18.5,31.22Z" fill="#0baeff"/>
  <path d="M16.3,26.93c0,3.32-2.1,5.05-4.4,5.05s-4.32-1.81-4.32-4.79,1.73-5,4.44-5,4.28,2.03,4.28,4.74Zm-6,.17c0,1.66,.56,2.86,1.64,2.86s1.56-1.07,1.56-2.86c0-1.61-.44-2.86-1.59-2.86s-1.57,1.28-1.57,2.86h-.04Zm19.7,6.43c0,3.32-2.1,5.05-4.4,5.05s-4.3-1.81-4.32-4.79,1.73-5,4.44-5,4.28,2.07,4.28,4.74Zm-5.93,.17c0,1.66,.54,2.86,1.61,2.86s1.56-1.07,1.56-2.86c0-1.61-.42-2.86-1.56-2.86s-1.57,1.27-1.57,2.86h-.04Z" fill="#e0e0e0"/>
  <line x1="23.7" y1="22.55" x2="14.45" y2="37.58" fill="none" stroke="#e0e0e0" stroke-linecap="round" stroke-linejoin="round" stroke-width="2"/>
</svg>