<?xml version="1.0" encoding="UTF-8"?>
<svg id="Layer_1" data-name="Layer 1" xmlns="http://www.w3.org/2000/svg" viewBox="0 0 74 42">
  <rect x="18" y="2" width="38" height="38" rx="4" ry="4" fill="#317248"/>
  <path d="M52,2h-7.99c3.31,.01,5.99,2.69,5.99,6v26c0,3.31-2.69,6-6,6h8c2.21,0,4-1.79,4-4h0V6c0-2.21-1.79-4-4-4h0Z" fill="#0bce5a"/>
  <circle cx="37" cy="21" r="13" fill="#777"/>
  <circle cx="37" cy="21" r="4.09" fill="#3a3a3a"/>
  <rect x="18" y="2" width="38" height="38" rx="4" ry="4" fill="none" stroke="#000" stroke-linecap="round" stroke-linejoin="round" stroke-width="4"/>
  <circle cx="37" cy="21" r="13" fill="none" stroke="#000" stroke-linecap="round" stroke-linejoin="round" stroke-width="4"/>
  <circle cx="37" cy="21" r="4.09" fill="none" stroke="#000" stroke-linecap="round" stroke-linejoin="round" stroke-width="4"/>
  <line x1="71" y1="23" x2="68" y2="23" fill="none" stroke="#000" stroke-linecap="round" stroke-linejoin="round" stroke-width="4"/>
  <line x1="62" y1="17" x2="55" y2="17" fill="none" stroke="#000" stroke-linecap="round" stroke-linejoin="round" stroke-width="4"/>
  <circle cx="68" cy="17" r="2"/>
  <circle cx="62" cy="23" r="2"/>
  <circle cx="71" cy="29" r="2"/>
  <circle cx="72" cy="11" r="2"/>
  <line x1="52" y1="11" x2="66" y2="11" fill="none" stroke="#000" stroke-linecap="round" stroke-linejoin="round" stroke-width="4"/>
  <line x1="65" y1="29" x2="54" y2="29" fill="none" stroke="#000" stroke-linecap="round" stroke-linejoin="round" stroke-width="4"/>
  <line x1="12" y1="18" x2="2" y2="18" fill="none" stroke="#000" stroke-linecap="round" stroke-linejoin="round" stroke-width="4"/>
  <line x1="12" y1="30" x2="7" y2="30" fill="none" stroke="#000" stroke-linecap="round" stroke-linejoin="round" stroke-width="4"/>
  <line x1="16" y1="12" x2="5" y2="12" fill="none" stroke="#000" stroke-linecap="round" stroke-linejoin="round" stroke-width="4"/>
  <line x1="16" y1="24" x2="12" y2="24" fill="none" stroke="#000" stroke-linecap="round" stroke-linejoin="round" stroke-width="4"/>
  <line x1="6" y1="24" x2="3" y2="24" fill="none" stroke="#000" stroke-linecap="round" stroke-linejoin="round" stroke-width="4"/>
  <path d="M39.89,18.11h.08c3.29-.56,5.7-3.41,5.7-6.75h0" fill="none" stroke="#000" stroke-linejoin="round" stroke-width="4"/>
  <path d="M37,16.91l.05-.06c1.94-2.72,1.63-6.44-.73-8.8h0" fill="none" stroke="#000" stroke-linejoin="round" stroke-width="4"/>
  <path d="M34.11,18.11v-.08c-.56-3.29-3.41-5.7-6.75-5.7h0" fill="none" stroke="#000" stroke-linejoin="round" stroke-width="4"/>
  <path d="M32.91,21l-.06-.05c-2.72-1.94-6.44-1.63-8.8,.73h0" fill="none" stroke="#000" stroke-linejoin="round" stroke-width="4"/>
  <path d="M34.11,23.89h-.08c-3.29,.56-5.7,3.41-5.7,6.75h0" fill="none" stroke="#000" stroke-linejoin="round" stroke-width="4"/>
  <path d="M37,25.09l-.05,.06c-1.94,2.72-1.63,6.44,.73,8.8h0" fill="none" stroke="#000" stroke-linejoin="round" stroke-width="4"/>
  <path d="M39.89,23.89v.08c.56,3.29,3.41,5.7,6.75,5.7h0" fill="none" stroke="#000" stroke-linejoin="round" stroke-width="4"/>
  <path d="M41.09,21l.06,.05c2.72,1.94,6.44,1.63,8.8-.73h0" fill="none" stroke="#000" stroke-linejoin="round" stroke-width="4"/>
</svg>