<?xml version="1.0" encoding="UTF-8"?>
<svg id="Layer_1" data-name="Layer 1" xmlns="http://www.w3.org/2000/svg" viewBox="0 0 351.49 307.93">
  <g id="PM2.5">
    <path d="M39.27,97.02H10c-5.52,0-10,4.48-10,10v83.55c0,5.52,4.48,10,10,10s10-4.48,10-10v-32.12h19.27c16.97,.03,30.74-13.7,30.78-30.66,.03-16.97-13.7-30.74-30.66-30.78-.04,0-.08,0-.11,0h0Zm0,41.44H20v-21.44h19.27c5.92-.02,10.73,4.76,10.75,10.68,.02,5.92-4.76,10.73-10.68,10.75-.02,0-.05,0-.07,0h0Z" fill="#c810e8"/>
    <path d="M164.52,107.02c0-5.52-4.48-10-10-10-3.23,0-6.26,1.56-8.14,4.19l-21.88,30.61-21.88-30.61c-3.21-4.49-9.46-5.53-13.95-2.32-2.63,1.88-4.19,4.91-4.19,8.14v83.98c0,5.52,4.48,10,10,10s10-4.48,10-10v-52.79l11.88,16.62c3.21,4.49,9.46,5.53,13.95,2.32,.9-.64,1.68-1.42,2.32-2.32l11.88-16.62v52.79c0,5.52,4.48,10,10,10s10-4.48,10-10V107.02Z" fill="#c810e8"/>
    <path d="M250.71,130.03c-.02-18.22-14.79-32.99-33.01-33.01h-2.74c-18.22,.02-32.99,14.79-33.01,33.01v2.93c0,5.52,4.48,10,10,10s10-4.48,10-10v-2.93c0-7.18,5.83-13,13.01-13.01h2.74c7.18,0,13.01,5.82,13.01,13.01,0,3.27-1.23,6.43-3.46,8.83-.14,.15-.28,.31-.41,.47l-37.63,46.09c-3.49,4.28-2.86,10.58,1.42,14.07,1.79,1.46,4.02,2.25,6.32,2.25h43.75c5.52,0,10-4.48,10-10s-4.48-10-10-10h-22.68l24.13-29.55c5.51-6.07,8.56-13.97,8.55-22.16Z" fill="#c810e8"/>
    <circle cx="269.36" cy="192.34" r="9.43" fill="#c810e8"/>
    <path d="M318.34,135.15h-10.77v-18.13h25.24c5.52,0,10-4.48,10-10s-4.48-10-10-10h-35.24c-5.52,0-10,4.48-10,10v38.13c0,5.52,4.48,10,10,10h20.77c7.26,0,13.15,5.89,13.15,13.15s-5.89,13.15-13.15,13.15h-20.77c-5.52,0-10,4.48-10,10s4.48,10,10,10h20.77c18.31,0,33.15-14.84,33.15-33.15s-14.84-33.15-33.15-33.15h0Z" fill="#c810e8"/>
    <circle cx="175.75" cy="53.37" r="12.72" fill="#c810e8"/>
    <circle cx="272.35" cy="53.37" r="12.72" fill="#c810e8"/>
    <circle cx="79.15" cy="53.37" r="12.72" fill="#c810e8"/>
    <circle cx="127.45" cy="12.73" r="12.72" fill="#c810e8"/>
    <circle cx="224.05" cy="12.73" r="12.72" fill="#c810e8"/>
    <circle cx="175.75" cy="254.56" r="12.72" fill="#c810e8"/>
    <circle cx="79.15" cy="254.56" r="12.72" fill="#c810e8"/>
    <circle cx="272.36" cy="254.56" r="12.72" fill="#c810e8"/>
    <circle cx="224.05" cy="295.21" r="12.72" fill="#c810e8"/>
    <circle cx="127.45" cy="295.21" r="12.72" fill="#c810e8"/>
  </g>
</svg>