<?xml version="1.0" encoding="UTF-8"?>
<svg id="Layer_1" data-name="Layer 1" xmlns="http://www.w3.org/2000/svg" viewBox="0 0 27 19">
  <g id="Page-1">
    <g id="icon-52-barometer">
      <path id="barometer" d="M14.89,15.42c.67,.45,1.11,1.21,1.11,2.08,0,.17-.02,.34-.05,.5h10.28c.5-1.41,.77-2.92,.77-4.5C27,6.04,20.96,0,13.5,0S0,6.04,0,13.5c0,1.58,.27,3.09,.77,4.5H11.05c-.03-.16-.05-.33-.05-.5,0-.87,.44-1.63,1.11-2.08l1.39-7.42,1.39,7.42h0Zm-1.39,3.58c.83,0,1.5-.67,1.5-1.5s-.67-1.5-1.5-1.5-1.5,.67-1.5,1.5,.67,1.5,1.5,1.5h0ZM13.5,1c-.28,0-.5,.22-.5,.49v3.02c0,.27,.23,.49,.5,.49s.5-.22,.5-.49V1.49c0-.27-.23-.49-.5-.49h0Zm6.76,2.2c-.22-.16-.53-.12-.69,.1l-1.77,2.44c-.16,.22-.1,.53,.12,.69,.22,.16,.53,.12,.69-.1l1.77-2.44c.16-.22,.1-.53-.12-.69h0Zm4.18,5.75c-.09-.26-.36-.41-.62-.32l-2.87,.93c-.26,.08-.39,.37-.31,.63,.09,.26,.36,.41,.62,.32l2.87-.93c.26-.08,.39-.37,.31-.63h0Zm0,7.11c.09-.26-.05-.54-.31-.63l-2.87-.93c-.26-.08-.54,.07-.62,.32-.09,.26,.05,.54,.31,.63l2.87,.93c.26,.08,.54-.07,.62-.32h0Zm-21.88,0c.09,.26,.36,.41,.62,.32l2.87-.93c.26-.08,.39-.37,.31-.63-.09-.26-.36-.41-.62-.32l-2.87,.93c-.26,.08-.39,.37-.31,.63h0Zm0-7.11c-.09,.26,.05,.54,.31,.63l2.87,.93c.26,.08,.54-.07,.62-.32,.09-.26-.05-.54-.31-.63l-2.87-.93c-.26-.08-.54,.07-.62,.32h0ZM6.74,3.2c-.22,.16-.28,.47-.12,.69l1.77,2.44c.16,.22,.48,.26,.69,.1,.22-.16,.28-.47,.12-.69l-1.77-2.44c-.16-.22-.48-.26-.69-.1h0Z" fill="#b5db16" fill-rule="evenodd"/>
    </g>
  </g>
</svg>