<?xml version="1.0" encoding="UTF-8"?>
<svg id="Layer_1" data-name="Layer 1" xmlns="http://www.w3.org/2000/svg" xmlns:xlink="http://www.w3.org/1999/xlink" viewBox="0 0 203.27 200">
  <defs>
    <linearGradient id="linear-gradient" x1="86.2" y1="137.93" x2="110.39" y2="113.82" gradientTransform="translate(0 202) scale(1 -1)" gradientUnits="userSpaceOnUse">
      <stop offset="0" stop-color="#c8d3d7"/>
      <stop offset=".1" stop-color="#becfd7"/>
      <stop offset=".28" stop-color="#a2c5d6"/>
      <stop offset=".51" stop-color="#75b5d4"/>
      <stop offset=".78" stop-color="#389fd3"/>
      <stop offset="1" stop-color="#028cd1"/>
    </linearGradient>
    <linearGradient id="linear-gradient-2" x1="20266.33" y1="61870.97" x2="21794.73" y2="66557.67" gradientTransform="translate(0 202) scale(1 -1)" gradientUnits="userSpaceOnUse">
      <stop offset="0" stop-color="#c8d3d7"/>
      <stop offset=".1" stop-color="#becfd7"/>
      <stop offset=".28" stop-color="#a2c5d6"/>
      <stop offset=".51" stop-color="#75b5d4"/>
      <stop offset=".78" stop-color="#389fd3"/>
      <stop offset="1" stop-color="#028cd1"/>
    </linearGradient>
    <linearGradient id="linear-gradient-3" x1="102199.63" y1="46526.05" x2="106608.73" y2="48530.05" gradientTransform="translate(0 202) scale(1 -1)" gradientUnits="userSpaceOnUse">
      <stop offset="0" stop-color="#c8d3d7"/>
      <stop offset=".1" stop-color="#becfd7"/>
      <stop offset=".28" stop-color="#a2c5d6"/>
      <stop offset=".51" stop-color="#75b5d4"/>
      <stop offset=".78" stop-color="#389fd3"/>
      <stop offset="1" stop-color="#028cd1"/>
    </linearGradient>
  </defs>
  <path d="M203.27,84.98C203.27,38.02,164.39-.51,117.54,0,75.93,.48,41.52,31,34.9,70.94L.48,89.06c-.16,.08-.3,.21-.38,.37-.08,.16-.11,.35-.08,.53,.03,.18,.12,.35,.25,.47,.13,.13,.3,.21,.48,.23l33.65,4.94c1.48,11.88,5.46,23.32,11.68,33.54l-25.6,46.35c-.08,.16-.12,.33-.1,.51,.02,.18,.1,.34,.22,.47,.12,.13,.28,.22,.45,.25,.17,.03,.35,0,.51-.07l47.26-22.82c8.31,6.03,17.64,10.5,27.54,13.18l-.19,32.14c0,.18,.05,.35,.15,.5,.1,.15,.25,.25,.42,.31,.17,.06,.35,.06,.52,0,.17-.05,.32-.16,.42-.3l22.17-29.73c46.19-.71,83.41-38.47,83.41-84.95Z" fill="#001d3c"/>
  <path d="M156.92,41.69l-3.47-1.47,3.58-1.08,1.81-7.52,1.31,7.64,3.47,1.27-3.49,1.28-1.59,7.63-1.62-7.76Z" fill="#fff"/>
  <path d="M86.02,144.52l-3.47-1.46,3.59-1.08,1.81-7.52,1.31,7.64,3.46,1.27-3.49,1.28-1.6,7.63-1.62-7.76Z" fill="#fff"/>
  <path d="M105.27,24.95c1.23,0,2.23-1,2.23-2.24s-1-2.24-2.23-2.24-2.23,1-2.23,2.24,1,2.24,2.23,2.24Z" fill="#32b7e0"/>
  <path d="M168.02,132.21c0,.44,.13,.88,.38,1.24,.25,.37,.6,.66,1,.83,.41,.17,.86,.21,1.29,.13,.43-.09,.83-.3,1.14-.61,.31-.31,.53-.71,.61-1.15,.09-.43,.04-.88-.13-1.29-.17-.41-.46-.76-.82-1.01-.37-.25-.8-.38-1.24-.38-.59,0-1.16,.24-1.58,.66-.42,.42-.65,.99-.65,1.58Z" fill="#32b7e0"/>
  <path d="M179.99,117.55c0,.44,.13,.88,.38,1.24,.24,.37,.59,.66,1,.83,.41,.17,.86,.21,1.29,.13,.43-.09,.83-.3,1.14-.61,.31-.31,.52-.71,.61-1.15,.09-.43,.04-.88-.13-1.29-.17-.41-.46-.76-.82-1.01-.37-.25-.8-.38-1.24-.38-.29,0-.58,.06-.86,.17-.27,.11-.52,.28-.72,.49-.21,.21-.37,.46-.48,.73-.11,.27-.17,.56-.17,.86Z" fill="#fefefe"/>
  <path d="M63.37,100.4c0,.44,.13,.88,.37,1.25,.25,.37,.59,.66,1,.83,.41,.17,.86,.21,1.29,.13,.43-.09,.83-.3,1.15-.61,.31-.31,.53-.71,.61-1.15,.09-.43,.04-.89-.13-1.29-.17-.41-.46-.76-.82-1.01-.37-.25-.8-.38-1.24-.38-.59,0-1.16,.24-1.58,.66-.42,.42-.65,.99-.65,1.58Z" fill="#fefefe"/>
  <path d="M65.62,54.81c-.14,.13-.32,.21-.51,.21h-10.51c-.1,0-.19-.02-.28-.06-.09-.04-.17-.09-.24-.16-.07-.07-.12-.15-.16-.24-.04-.09-.06-.18-.06-.28s.02-.19,.06-.28c.04-.09,.09-.17,.16-.24s.15-.12,.24-.16c.09-.04,.18-.06,.28-.06h10.51c.1,0,.19,.02,.28,.06,.09,.04,.17,.09,.24,.16,.07,.07,.12,.15,.16,.24,.04,.09,.05,.19,.05,.28,0,.19-.08,.36-.21,.5Z" fill="#01a4cb"/>
  <path d="M60.37,60.08c-.1,.1-.23,.17-.37,.2-.14,.03-.29,.01-.42-.04-.13-.06-.24-.15-.32-.27-.08-.12-.12-.26-.12-.4v-10.53c0-.1,.02-.19,.06-.28,.04-.09,.09-.17,.16-.24,.07-.07,.15-.12,.24-.16,.09-.04,.18-.06,.28-.06s.19,.02,.28,.06c.09,.04,.17,.09,.24,.16,.07,.07,.12,.15,.16,.24,.04,.09,.06,.18,.06,.28v10.53c0,.19-.08,.38-.22,.52Z" fill="#01a4cb"/>
  <path d="M180.64,96.37c-.1,0-.19-.02-.28-.05-.09-.04-.17-.09-.23-.16l-7.43-7.45c-.14-.14-.21-.32-.21-.51,0-.19,.08-.38,.21-.51,.14-.14,.32-.21,.51-.21,.19,0,.38,.08,.51,.21l7.43,7.45c.14,.14,.21,.32,.21,.51s-.08,.38-.21,.51c-.07,.07-.15,.12-.23,.16-.09,.04-.18,.05-.28,.05Z" fill="#fcbb03"/>
  <path d="M173.21,96.37c-.14,0-.28-.04-.4-.12-.12-.08-.21-.19-.27-.33-.06-.13-.07-.28-.04-.42,.03-.14,.1-.27,.2-.37l7.43-7.45c.14-.14,.32-.21,.51-.21,.19,0,.38,.08,.51,.21,.14,.14,.21,.32,.21,.51,0,.19-.08,.38-.21,.51l-7.44,7.45c-.13,.13-.31,.21-.5,.21Z" fill="#fcbb03"/>
  <path d="M108.64,91.57l-39.27,35.8c-.08,.08-.09,.2-.01,.28l.45,.5c.07,.08,.2,.09,.28,.01l39.27-35.8c.08-.07,.09-.2,.01-.28l-.45-.5c-.07-.08-.2-.09-.28-.01Z" fill="#fff"/>
  <path d="M133.57,108.25l-18.53,39.29c-.03,.05,0,.12,.05,.14l.77,.37c.05,.03,.12,0,.14-.05l18.53-39.29c.03-.05,0-.12-.05-.14l-.77-.37c-.05-.03-.12,0-.14,.05Z" fill="#fff"/>
  <path d="M91.18,66.07l-41.17,10.1c-.11,.03-.17,.13-.15,.24l.16,.66c.03,.11,.13,.17,.24,.15l41.17-10.1c.11-.03,.17-.13,.15-.24l-.16-.66c-.03-.11-.13-.17-.24-.15Z" fill="#fff"/>
  <path d="M53.87,77.17c0,.67-.2,1.32-.57,1.87s-.9,.99-1.51,1.24c-.62,.26-1.29,.32-1.94,.19-.65-.13-1.25-.45-1.72-.92-.47-.47-.79-1.07-.92-1.73-.13-.65-.06-1.33,.19-1.95,.25-.62,.69-1.14,1.24-1.51,.55-.37,1.2-.57,1.87-.57,.89,0,1.75,.36,2.38,.99,.63,.63,.99,1.49,.99,2.39Z" fill="#fcbb03"/>
  <path d="M119.66,146.69c0,.67-.2,1.32-.57,1.87-.37,.55-.9,.99-1.51,1.24-.62,.26-1.29,.32-1.94,.19-.65-.13-1.25-.45-1.72-.92-.47-.47-.79-1.07-.92-1.73-.13-.65-.06-1.33,.19-1.95,.26-.62,.69-1.14,1.24-1.51,.55-.37,1.2-.57,1.87-.57,.44,0,.88,.09,1.29,.26,.41,.17,.78,.42,1.09,.73,.31,.31,.56,.69,.73,1.1s.26,.85,.25,1.29Z" fill="#fcbb03"/>
  <path d="M70.13,131.19c1.86,0,3.37-1.51,3.37-3.38s-1.51-3.37-3.37-3.37-3.37,1.51-3.37,3.37,1.51,3.38,3.37,3.38Z" fill="#fcbb03"/>
  <path d="M89.89,108.84l-7.21-41.14,24.11-24.18,7.21,41.14-24.12,24.19Z" fill="url(#linear-gradient)"/>
  <path d="M89.89,108.84l41.04,7.2,24.11-24.18-41.03-7.21-24.12,24.19Z" fill="url(#linear-gradient-2)"/>
  <path d="M147.86,50.72l-40.98-7.29,7.29,41.05,40.96,7.3-7.27-41.06Z" fill="url(#linear-gradient-3)"/>
</svg>